<svg xmlns="http://www.w3.org/2000/svg" xmlns:xlink="http://www.w3.org/1999/xlink" viewBox="0 0 400 300"><defs><style>.cls-1{fill:#00b3e3;}.cls-2{fill:#404041;}.cls-3{fill:url(#linear-gradient);}.cls-4{fill:url(#linear-gradient-2);}.cls-5{fill:url(#linear-gradient-3);}.cls-6{fill:url(#linear-gradient-4);}.cls-7{fill:url(#linear-gradient-5);}.cls-8{fill:url(#linear-gradient-6);}.cls-9{fill:url(#linear-gradient-7);}.cls-10{fill:url(#linear-gradient-8);}.cls-11{fill:url(#linear-gradient-9);}.cls-12{fill:url(#linear-gradient-10);}.cls-13{fill:url(#linear-gradient-11);}.cls-14{fill:url(#linear-gradient-12);}.cls-15{fill:url(#linear-gradient-13);}.cls-16{fill:url(#linear-gradient-14);}.cls-17{fill:url(#linear-gradient-15);}.cls-18{fill:url(#linear-gradient-16);}.cls-19{fill:url(#linear-gradient-17);}.cls-20{fill:url(#linear-gradient-18);}.cls-21{fill:url(#linear-gradient-19);}.cls-22{fill:url(#linear-gradient-20);}.cls-23{fill:url(#linear-gradient-21);}.cls-24{fill:url(#linear-gradient-22);}.cls-25{fill:url(#linear-gradient-23);}.cls-26{fill:url(#linear-gradient-24);}</style><linearGradient id="linear-gradient" x1="167.08" y1="109.18" x2="277.88" y2="109.18" gradientUnits="userSpaceOnUse"><stop offset="0" stop-color="#00b3e3"/><stop offset="0.04" stop-color="#00b3e3" stop-opacity="0.91"/><stop offset="0.16" stop-color="#00b3e3" stop-opacity="0.66"/><stop offset="0.26" stop-color="#00b3e3" stop-opacity="0.46"/><stop offset="0.36" stop-color="#00b3e3" stop-opacity="0.32"/><stop offset="0.44" stop-color="#00b3e3" stop-opacity="0.23"/><stop offset="0.5" stop-color="#00b3e3" stop-opacity="0.2"/><stop offset="0.55" stop-color="#00b3e3" stop-opacity="0.23"/><stop offset="0.63" stop-color="#00b3e3" stop-opacity="0.33"/><stop offset="0.74" stop-color="#00b3e3" stop-opacity="0.48"/><stop offset="0.85" stop-color="#00b3e3" stop-opacity="0.69"/><stop offset="0.98" stop-color="#00b3e3" stop-opacity="0.95"/><stop offset="1" stop-color="#00b3e3"/></linearGradient><linearGradient id="linear-gradient-2" x1="57.44" y1="927.32" x2="168.24" y2="927.32" gradientTransform="translate(290.36 1036.5) rotate(180)" xlink:href="#linear-gradient"/><linearGradient id="linear-gradient-3" x1="271.42" y1="137.46" x2="382.22" y2="137.46" gradientTransform="translate(-129.54 55.18) rotate(-15)" xlink:href="#linear-gradient"/><linearGradient id="linear-gradient-4" x1="-46.23" y1="899.36" x2="64.57" y2="899.36" gradientTransform="translate(419.9 981.32) rotate(165)" xlink:href="#linear-gradient"/><linearGradient id="linear-gradient-5" x1="364.34" y1="191.68" x2="475.14" y2="191.68" gradientTransform="translate(-239.87 141.82) rotate(-30)" xlink:href="#linear-gradient"/><linearGradient id="linear-gradient-6" x1="-139.69" y1="845.39" x2="-28.89" y2="845.39" gradientTransform="translate(530.23 894.68) rotate(150)" xlink:href="#linear-gradient"/><linearGradient id="linear-gradient-7" x1="440.36" y1="267.84" x2="551.15" y2="267.84" gradientTransform="translate(-324.04 254.45) rotate(-45)" xlink:href="#linear-gradient"/><linearGradient id="linear-gradient-8" x1="-215.68" y1="768.82" x2="-104.88" y2="768.82" gradientTransform="translate(614.41 782.05) rotate(135)" xlink:href="#linear-gradient"/><linearGradient id="linear-gradient-9" x1="494.22" y1="361.27" x2="605.02" y2="361.27" gradientTransform="translate(-376.43 385.05) rotate(-60)" xlink:href="#linear-gradient"/><linearGradient id="linear-gradient-10" x1="-269.14" y1="675.4" x2="-158.34" y2="675.4" gradientTransform="translate(666.79 651.45) rotate(120)" xlink:href="#linear-gradient"/><linearGradient id="linear-gradient-11" x1="521.73" y1="465.67" x2="632.53" y2="465.67" gradientTransform="translate(-393.34 524.4) rotate(-75)" xlink:href="#linear-gradient"/><linearGradient id="linear-gradient-12" x1="-296.93" y1="571.51" x2="-186.13" y2="571.51" gradientTransform="translate(683.7 512.1) rotate(105)" xlink:href="#linear-gradient"/><linearGradient id="linear-gradient-13" x1="521.33" y1="573.07" x2="632.12" y2="573.07" gradientTransform="translate(-373.07 663.43) rotate(-90)" xlink:href="#linear-gradient"/><linearGradient id="linear-gradient-14" x1="-296.81" y1="463.43" x2="-186.01" y2="463.43" gradientTransform="translate(663.43 373.07) rotate(90)" xlink:href="#linear-gradient"/><linearGradient id="linear-gradient-15" x1="493.55" y1="677.23" x2="604.35" y2="677.23" gradientTransform="translate(-317.89 792.97) rotate(-105)" xlink:href="#linear-gradient"/><linearGradient id="linear-gradient-16" x1="-268.36" y1="359.58" x2="-157.56" y2="359.58" gradientTransform="translate(608.25 243.53) rotate(75)" xlink:href="#linear-gradient"/><linearGradient id="linear-gradient-17" x1="439.18" y1="770.55" x2="549.98" y2="770.55" gradientTransform="translate(-231.25 903.3) rotate(-120)" xlink:href="#linear-gradient"/><linearGradient id="linear-gradient-18" x1="-214.53" y1="266.52" x2="-103.73" y2="266.52" gradientTransform="translate(521.61 133.2) rotate(60)" xlink:href="#linear-gradient"/><linearGradient id="linear-gradient-19" x1="362.83" y1="846.35" x2="473.63" y2="846.35" gradientTransform="translate(-118.62 987.47) rotate(-135)" xlink:href="#linear-gradient"/><linearGradient id="linear-gradient-20" x1="-138.16" y1="190.31" x2="-27.36" y2="190.31" gradientTransform="translate(408.98 49.03) rotate(45)" xlink:href="#linear-gradient"/><linearGradient id="linear-gradient-21" x1="269.61" y1="900.01" x2="380.41" y2="900.01" gradientTransform="translate(11.98 1039.86) rotate(-150)" xlink:href="#linear-gradient"/><linearGradient id="linear-gradient-22" x1="-44.53" y1="136.66" x2="66.27" y2="136.66" gradientTransform="translate(278.38 -3.36) rotate(30)" xlink:href="#linear-gradient"/><linearGradient id="linear-gradient-23" x1="165.32" y1="927.92" x2="276.12" y2="927.92" gradientTransform="translate(151.33 1056.77) rotate(-165)" xlink:href="#linear-gradient"/><linearGradient id="linear-gradient-24" x1="59.48" y1="109.27" x2="170.28" y2="109.27" gradientTransform="translate(139.03 -20.27) rotate(15)" xlink:href="#linear-gradient"/></defs><title>logo</title><g id="Layer_1" data-name="Layer 1"><path class="cls-1" d="M133.11,220.76l-10.85,38.38a6.28,6.28,0,0,1-12,0L99.33,220.76a.75.75,0,0,1-.06-.35,1,1,0,0,1,1.06-1h3.42a1.19,1.19,0,0,1,1.06.88l10.26,37.56c.24.83.53,1.24,1.18,1.24s.88-.41,1.12-1.24l10.32-37.56a1.12,1.12,0,0,1,1-.88h3.48a1,1,0,0,1,1,1A.75.75,0,0,1,133.11,220.76Z"/><path class="cls-1" d="M174.85,263.21h-3.77c-.71,0-1.06,0-1.53-.77L159,244.87h-1.53c-1.95,0-3.36-.06-6.49-.18V262a1.12,1.12,0,0,1-1.06,1.18h-3.18a1.12,1.12,0,0,1-1.06-1.18V220.76c0-.83.35-1.18,1.42-1.3,2.54-.29,7-.47,10.38-.47,9.32,0,16.51,3.12,16.51,12.68v.41c0,6.6-3.89,10.5-9.26,11.91l10.73,17.92a1,1,0,0,1,.18.53A.74.74,0,0,1,174.85,263.21Zm-6.19-31.54c0-5.9-3.83-7.84-11.2-7.84-1.83,0-5.07,0-6.49.18v16.16c2.59.06,5.13.12,6.49.12,7.25,0,11.2-1.83,11.2-8.2Z"/><path class="cls-2" d="M213.65,263.33c-2.24.24-8,.29-11.5.29-8.25,0-12.56-3.12-12.56-11V230c0-7.84,4.3-11,12.56-11,3.48,0,9,.12,11.5.35a.83.83,0,0,1,.59.83v2.95a.64.64,0,0,1-.65.71H202.21c-6.25,0-7.25,1.65-7.25,6.13v8.2h18.1a1.18,1.18,0,0,1,1.18,1.18v2.24a1.18,1.18,0,0,1-1.18,1.18H195v9.91c0,4.48,1,6.13,7.25,6.13h11.38a.64.64,0,0,1,.65.71v3A.83.83,0,0,1,213.65,263.33Z"/><path class="cls-2" d="M240.65,263.62a58.88,58.88,0,0,1-9.79-.83c-1-.18-1.12-.41-1.12-1.06v-2.36a.91.91,0,0,1,1-.94h.18c2.71.24,7,.35,9.73.35,7.08,0,9-2.83,9-7,0-2.95-1.71-4.6-7.08-7.9l-5.72-3.48c-5.42-3.3-8.14-6.31-8.14-11,0-7.13,5.13-10.44,14.09-10.44a80,80,0,0,1,10.26.71c.59.12,1,.41,1,1v2.54a.91.91,0,0,1-1,.94h-.12c-2.59-.18-6.72-.35-10.14-.35-6.07,0-8.67,1.3-8.67,5.6,0,2.77,1.95,4.42,6.43,7.13L246,239.8c6.84,4.07,9.26,7.31,9.26,12C255.22,257.49,252.27,263.62,240.65,263.62Z"/><path class="cls-2" d="M299.55,263.21h-3a1.18,1.18,0,0,1-1.18-1.18V242.46H275.2V262a1.18,1.18,0,0,1-1.18,1.18h-3a1.18,1.18,0,0,1-1.18-1.18V220.58A1.18,1.18,0,0,1,271,219.4h3a1.18,1.18,0,0,1,1.18,1.18v17.1h20.16v-17.1a1.18,1.18,0,0,1,1.18-1.18h3a1.18,1.18,0,0,1,1.18,1.18V262A1.18,1.18,0,0,1,299.55,263.21Z"/><path class="cls-3" d="M217.86,150.52c-15.67,0-28.74-4.18-37.79-12.08a38.18,38.18,0,0,1-13-29.25,38.18,38.18,0,0,1,13-29.25c9.05-7.91,22.12-12.08,37.79-12.08,33.09,0,60,18.54,60,41.34S251,150.52,217.86,150.52Zm0-81.67c-30.24,0-49.78,15.83-49.78,40.34s19.54,40.34,49.78,40.34c32.54,0,59-18.09,59-40.34S250.4,68.85,217.86,68.85Z"/><path class="cls-4" d="M182.14,150.52c-33.1,0-60-18.54-60-41.34s26.92-41.34,60-41.34c15.67,0,28.74,4.18,37.79,12.08a38.18,38.18,0,0,1,13,29.25,38.18,38.18,0,0,1-13,29.25C210.89,146.34,197.82,150.52,182.14,150.52Zm0-81.67c-32.54,0-59,18.09-59,40.34s26.48,40.34,59,40.34c30.24,0,49.78-15.83,49.78-40.34S212.38,68.85,182.14,68.85Z"/><path class="cls-5" d="M209.25,147.12a47.2,47.2,0,0,1-20.93-4.52,38.18,38.18,0,0,1-20.11-24.9,38.18,38.18,0,0,1,5-31.62c6.7-10,18.24-17.4,33.38-21.45,15.45-4.14,31.1-3.9,44,.67s21.76,13,24.63,23.72h0c2.87,10.7-.5,22.37-9.47,32.86s-22.35,18.46-37.81,22.6A72.52,72.52,0,0,1,209.25,147.12Zm19.09-84.42a83.49,83.49,0,0,0-21.53,2.91c-29.21,7.83-44,28.18-37.64,51.85s29.32,33.9,58.52,26.08c15.26-4.09,28.51-12,37.31-22.29s12-21.58,9.26-31.95h0c-2.78-10.37-11.3-18.55-24-23A66,66,0,0,0,228.34,62.69Z"/><path class="cls-6" d="M171.66,156.67a67,67,0,0,1-22.25-3.61c-13-4.6-21.76-13-24.63-23.72s.5-22.37,9.47-32.86S156.6,78,172.05,73.88c15.14-4.06,28.85-3.4,39.63,1.89a39.44,39.44,0,0,1,15.14,56.51c-6.7,10-18.24,17.4-33.38,21.45A84.48,84.48,0,0,1,171.66,156.67Zm19.15-84.42a71.72,71.72,0,0,0-18.5,2.59c-15.26,4.09-28.51,12-37.31,22.29s-12,21.58-9.26,31.95h0c2.78,10.37,11.3,18.55,24,23s28.19,4.74,43.45.65c29.21-7.83,44-28.18,37.64-51.85C225.9,82.53,210.94,72.25,190.81,72.25Z"/><path class="cls-7" d="M205.48,145.26a41.91,41.91,0,0,1-8.12-.78,39.44,39.44,0,0,1-29.25-50.67C172,82.45,181.22,72.29,194.8,64.46c13.85-8,29-11.82,42.72-10.75s24.39,6.95,29.93,16.54h0c11.4,19.74-2.65,49.26-31.31,65.81C225.59,142.14,215.14,145.26,205.48,145.26Zm27.46-90.73c-12.27,0-25.46,3.76-37.64,10.79-26.19,15.12-35.19,38.6-22.94,59.82s37.09,25.16,63.28,10C263.82,118.92,277.7,90,266.58,70.75h0c-5.37-9.3-15.72-15-29.14-16Q235.21,54.53,232.94,54.53Z"/><path class="cls-8" d="M167.06,164.84q-2.31,0-4.57-.18c-13.76-1.07-24.39-6.95-29.93-16.54s-5.31-21.73.64-34.19S150,90.31,163.87,82.31c13.57-7.84,27-10.75,38.77-8.43a39.45,39.45,0,0,1,29.25,50.67c-3.89,11.37-13.11,21.53-26.69,29.36C192.87,161,179.5,164.84,167.06,164.84Zm27.47-90.73c-9.49,0-19.76,3.07-30.16,9.07-13.68,7.9-24.43,19-30.27,31.18s-6,24-.68,33.26h0c5.37,9.3,15.72,15,29.14,16S191,160.94,204.7,153c13.36-7.71,22.44-17.68,26.24-28.82a38.45,38.45,0,0,0-28.5-49.36A41,41,0,0,0,194.52,74.11Z"/><path class="cls-9" d="M204,144.05a39.52,39.52,0,0,1-38.78-41.46c.81-12,7.1-24.19,18.18-35.27,23.4-23.4,55.55-29.33,71.67-13.21s10.19,48.27-13.21,71.67c-11.08,11.08-23.28,17.37-35.27,18.18Q205.29,144.05,204,144.05Zm27.05-98c-15,0-32.64,7.7-46.95,22-21.38,21.38-24,46.39-6.68,63.72A37.21,37.21,0,0,0,206.52,143c11.75-.79,23.72-7,34.63-17.89,23-23,28.94-54.53,13.21-70.26C248.41,48.87,240.2,46,231.05,46Z"/><path class="cls-10" d="M168.9,173.37c-9.66,0-18-3.12-24-9.12-7.83-7.83-10.76-19.62-8.23-33.19s10.13-27.17,21.44-38.48c11.08-11.08,23.28-17.37,35.27-18.18a39.45,39.45,0,0,1,41.37,41.37c-.81,12-7.1,24.19-18.18,35.27-11.31,11.31-25,18.93-38.48,21.44A50.44,50.44,0,0,1,168.9,173.37ZM196,75.31q-1.25,0-2.51.09c-11.75.79-23.72,7-34.63,17.89-11.17,11.17-18.69,24.65-21.16,38s.36,24.71,8,32.3,19.07,10.42,32.3,8,26.78-10,38-21.16c21.38-21.38,24-46.39,6.68-63.72A37.32,37.32,0,0,0,196,75.31Z"/><path class="cls-11" d="M203.21,143.11a39.24,39.24,0,0,1-19.67-5.41,38.19,38.19,0,0,1-18.84-25.87c-2.32-11.79.59-25.2,8.43-38.77,16.55-28.66,46.07-42.71,65.81-31.31s22.33,44,5.79,72.65c-7.84,13.57-18,22.8-29.36,26.69A37.52,37.52,0,0,1,203.21,143.11Zm20.4-104.34C206.33,38.77,186.46,52,174,73.55c-7.71,13.36-10.59,26.53-8.32,38.08A37.2,37.2,0,0,0,184,136.83c21.22,12.25,44.7,3.25,59.82-22.94,16.27-28.18,13.84-60.16-5.42-71.28A29.34,29.34,0,0,0,223.61,38.77Z"/><path class="cls-12" d="M176.43,180.62a30.4,30.4,0,0,1-15.37-4h0c-9.59-5.54-15.47-16.17-16.54-29.93s2.75-28.86,10.75-42.72c7.84-13.58,18-22.8,29.36-26.69a39.45,39.45,0,0,1,50.67,29.25c2.32,11.79-.59,25.2-8.43,38.77-8,13.85-19.23,24.75-31.62,30.67A43.89,43.89,0,0,1,176.43,180.62ZM196.79,76.26a36.51,36.51,0,0,0-11.83,2c-11.14,3.81-21.1,12.88-28.82,26.24-7.9,13.68-11.67,28.65-10.62,42.14s6.74,23.77,16,29.14h0c9.3,5.37,21.11,5.13,33.26-.68S218.1,158.5,226,144.82c7.71-13.36,10.59-26.53,8.32-38.08A37.2,37.2,0,0,0,216,81.54,38.25,38.25,0,0,0,196.79,76.26Z"/><path class="cls-13" d="M202.07,142.4A40.9,40.9,0,0,1,191.48,141a38.19,38.19,0,0,1-24.89-20.11c-5.29-10.79-5.95-24.49-1.89-39.63,8.57-32,33.44-53.17,55.46-47.28h0c22,5.9,33,36.71,24.39,68.67-4.06,15.14-11.48,26.68-21.46,33.38A37.46,37.46,0,0,1,202.07,142.4ZM212.61,34c-19.44,0-39.47,19.6-47,47.52-7.83,29.21,2.41,52.18,26.08,58.52s44-8.43,51.84-37.64c8.42-31.43-2.2-61.69-23.69-67.45h0A28.1,28.1,0,0,0,212.61,34Z"/><path class="cls-14" d="M187.45,185.41a29.32,29.32,0,0,1-7.6-1c-10.7-2.87-19.12-11.61-23.72-24.63s-4.81-28.59-.67-44c4.06-15.14,11.48-26.68,21.45-33.38A39.45,39.45,0,0,1,233.42,97.5c5.29,10.79,5.95,24.49,1.89,39.64-4.14,15.45-12.17,28.88-22.6,37.81C204.66,181.82,195.91,185.4,187.45,185.41ZM197.6,76.9c-19,0-34.56,14.38-41.19,39.09-4.09,15.26-3.86,30.69.65,43.45s12.67,21.22,23,24,21.72-.51,31.95-9.26,18.2-22,22.29-37.31c4-14.9,3.36-28.37-1.82-38.94a37.2,37.2,0,0,0-24.26-19.59A41.14,41.14,0,0,0,197.6,76.9Z"/><path class="cls-15" d="M200,142.1a38.18,38.18,0,0,1-29.25-13c-7.91-9.05-12.08-22.12-12.08-37.79,0-33.09,18.54-60,41.34-60s41.34,26.92,41.34,60c0,15.67-4.18,28.74-12.08,37.79A38.19,38.19,0,0,1,200,142.1Zm0-109.8c-22.24,0-40.34,26.48-40.34,59,0,30.24,15.83,49.78,40.34,49.78s40.34-19.54,40.34-49.78C240.34,58.78,222.24,32.31,200,32.31Z"/><path class="cls-16" d="M200,187.06c-22.79,0-41.34-26.92-41.34-60,0-15.67,4.18-28.74,12.08-37.79a39.45,39.45,0,0,1,58.5,0c7.91,9.05,12.08,22.12,12.08,37.79C241.34,160.14,222.79,187.06,200,187.06Zm0-109.8c-24.5,0-40.34,19.54-40.34,49.78,0,32.54,18.09,59,40.34,59s40.34-26.48,40.34-59C240.34,96.8,224.5,77.26,200,77.26Z"/><path class="cls-17" d="M197.93,142.4a37.46,37.46,0,0,1-21-6.39c-10-6.7-17.4-18.24-21.45-33.38-8.57-32,2.38-62.77,24.39-68.67s46.9,15.31,55.46,47.28c4.06,15.14,3.4,28.85-1.89,39.63A38.19,38.19,0,0,1,208.52,141,40.91,40.91,0,0,1,197.93,142.4ZM180.1,34.93c-21.48,5.76-32.11,36-23.69,67.45,7.83,29.21,28.18,44,51.84,37.64s33.9-29.31,26.08-58.52c-8.42-31.43-32.75-52.32-54.24-46.57Z"/><path class="cls-18" d="M212.55,185.41c-8.47,0-17.21-3.58-25.25-10.47-10.44-8.93-18.46-22.35-22.6-37.81-4.06-15.14-3.4-28.85,1.89-39.64A39.45,39.45,0,0,1,223.1,82.36c10,6.7,17.4,18.24,21.46,33.38,4.14,15.45,3.9,31.09-.67,44s-13,21.76-23.72,24.63h0A29.33,29.33,0,0,1,212.55,185.41ZM202.07,77a39.89,39.89,0,0,0-10.33,1.38,37.2,37.2,0,0,0-24.26,19.59c-5.19,10.57-5.82,24-1.82,38.94,4.09,15.26,12,28.51,22.29,37.31s21.58,12,31.95,9.26,18.55-11.3,23-24,4.74-28.19.65-43.45c-4-14.9-11.27-26.25-21-32.81A36.48,36.48,0,0,0,202.07,77Z"/><path class="cls-19" d="M196.79,143.11a37.51,37.51,0,0,1-12.15-2c-11.37-3.89-21.52-13.11-29.36-26.69-16.55-28.66-14-61.25,5.79-72.65,9.59-5.54,21.73-5.31,34.19.64s23.62,16.81,31.62,30.67c7.84,13.57,10.75,27,8.43,38.77a38.18,38.18,0,0,1-18.84,25.87A39.24,39.24,0,0,1,196.79,143.11ZM161.31,42.17l.25.43c-19.26,11.12-21.69,43.1-5.42,71.28,15.12,26.19,38.6,35.19,59.82,22.94a37.2,37.2,0,0,0,18.36-25.2c2.27-11.55-.6-24.72-8.32-38.08-7.9-13.68-19-24.43-31.18-30.27s-24-6-33.26-.68Z"/><path class="cls-20" d="M223.64,180.59c-17.64,0-37.87-13.37-50.51-35.27-7.84-13.57-10.75-27-8.43-38.77a39.45,39.45,0,0,1,50.67-29.25c11.37,3.89,21.52,13.11,29.36,26.69,8,13.85,11.82,29,10.75,42.72s-6.95,24.39-16.54,29.93A30.26,30.26,0,0,1,223.64,180.59ZM203.21,76.26A38.24,38.24,0,0,0,184,81.54c-21.22,12.25-25.16,37.09-10,63.28,16.27,28.18,45.18,42.07,64.44,30.94,9.3-5.37,15-15.72,16-29.14s-2.72-28.46-10.62-42.14C236.15,91.12,226.18,82,215,78.24A36.51,36.51,0,0,0,203.21,76.26Z"/><path class="cls-21" d="M196,144.05q-1.29,0-2.58-.09c-12-.81-24.19-7.1-35.27-18.18-11.31-11.31-18.93-25-21.44-38.48s.4-25.36,8.23-33.19l.35.35-.35-.35C161,38,193.2,43.93,216.6,67.33,227.69,78.41,234,90.61,234.78,102.6A39.52,39.52,0,0,1,196,144.05ZM168.95,46c-9.15,0-17.36,2.85-23.31,8.8h0c-7.59,7.59-10.42,19.06-8,32.3s10,26.78,21.16,38c10.91,10.91,22.88,17.1,34.63,17.89a37.21,37.21,0,0,0,29.09-11.21c17.33-17.33,14.71-42.34-6.68-63.72C201.59,53.73,184,46,168.95,46Z"/><path class="cls-22" d="M231.1,173.37a50.45,50.45,0,0,1-9.23-.89C208.38,170,194.71,162.35,183.4,151,172.31,140,166,127.76,165.22,115.77A39.45,39.45,0,0,1,206.59,74.4c12,.81,24.19,7.1,35.27,18.18,11.31,11.31,18.93,25,21.44,38.48s-.4,25.36-8.23,33.19h0C249.07,170.25,240.76,173.37,231.1,173.37ZM204,75.31a37.32,37.32,0,0,0-26.58,11.3c-17.33,17.33-14.71,42.34,6.68,63.72,11.17,11.17,24.65,18.69,38,21.16s24.71-.36,32.3-8,10.42-19.06,8-32.3-10-26.78-21.17-38c-10.91-10.91-22.88-17.1-34.63-17.89C205.68,75.34,204.84,75.31,204,75.31Z"/><path class="cls-23" d="M194.52,145.26c-9.66,0-20.11-3.12-30.66-9.21C135.21,119.51,121.16,90,132.56,70.25c5.54-9.59,16.17-15.47,29.93-16.54s28.86,2.75,42.72,10.75c13.58,7.84,22.8,18,26.69,29.36a39.45,39.45,0,0,1-29.25,50.67A41.91,41.91,0,0,1,194.52,145.26Zm-61.1-74.52c-11.12,19.26,2.76,48.17,30.94,64.44,13.36,7.71,26.53,10.59,38.08,8.32a37.2,37.2,0,0,0,25.2-18.36c12.25-21.22,3.25-44.7-22.94-59.82C191,57.42,176.05,53.65,162.56,54.7s-23.77,6.74-29.14,16Z"/><path class="cls-24" d="M232.94,164.84c-12.45,0-25.82-3.81-38.15-10.93-13.57-7.84-22.8-18-26.69-29.36a39.44,39.44,0,0,1,29.25-50.67c11.79-2.32,25.2.59,38.77,8.43,28.66,16.55,42.71,46.07,31.31,65.81h0c-5.54,9.59-16.17,15.47-29.93,16.54C236,164.78,234.48,164.84,232.94,164.84ZM205.28,74.07c-13.86,0-25.62,6.51-32.92,19.15a37.2,37.2,0,0,0-3.3,31c3.81,11.14,12.88,21.1,26.24,28.82,13.68,7.9,28.65,11.67,42.14,10.62s23.77-6.74,29.14-16c11.12-19.26-2.76-48.17-30.95-64.44C225,77.07,214.68,74.07,205.28,74.07Z"/><path class="cls-25" d="M190.75,147.12a72.49,72.49,0,0,1-18.7-2.63c-15.45-4.14-28.88-12.17-37.81-22.6S121.91,99.73,124.78,89s11.61-19.12,24.63-23.72,28.59-4.81,44-.67c15.14,4.06,26.68,11.48,33.38,21.45a38.18,38.18,0,0,1,5,31.62,38.19,38.19,0,0,1-20.11,24.9A47.2,47.2,0,0,1,190.75,147.12ZM171.66,62.69a66,66,0,0,0-21.92,3.56c-12.7,4.48-21.22,12.67-24,23h0C123,99.66,126.25,111,135,121.24s22,18.2,37.31,22.29a71.74,71.74,0,0,0,18.5,2.59c20.13,0,35.1-10.28,40-28.67,6.34-23.67-8.43-44-37.64-51.85A83.5,83.5,0,0,0,171.66,62.69Z"/><path class="cls-26" d="M228.34,156.67a84.49,84.49,0,0,1-21.79-2.94c-15.14-4.06-26.68-11.48-33.38-21.45a39.45,39.45,0,0,1,15.14-56.51c10.79-5.29,24.5-5.95,39.64-1.89C243.4,78,256.83,86,265.76,96.48s12.34,22.16,9.47,32.86-11.61,19.13-24.63,23.72A67,67,0,0,1,228.34,156.67ZM209.19,72.25c-20.13,0-35.1,10.28-40,28.67-6.34,23.67,8.43,44,37.64,51.85,15.26,4.09,30.69,3.86,43.45-.65s21.22-12.67,24-23h0c2.78-10.37-.51-21.72-9.26-31.95s-22-18.2-37.31-22.29A71.71,71.71,0,0,0,209.19,72.25Z"/></g></svg>